<!DOCTYPE svg PUBLIC "-//W3C//DTD SVG 1.1//EN" "http://www.w3.org/Graphics/SVG/1.1/DTD/svg11.dtd">
<!-- Uploaded to: SVG Repo, www.svgrepo.com, Transformed by: SVG Repo Mixer Tools -->
<svg fill="#e4c590" version="1.1" id="Capa_1" xmlns="http://www.w3.org/2000/svg" xmlns:xlink="http://www.w3.org/1999/xlink" width="800px" height="800px" viewBox="0 0 149.751 149.752" xml:space="preserve" stroke="#e4c590">
<g id="SVGRepo_bgCarrier" stroke-width="0"/>
<g id="SVGRepo_tracerCarrier" stroke-linecap="round" stroke-linejoin="round"/>
<g id="SVGRepo_iconCarrier"> <g> <g> <path d="M28.52,25.847v108.454l15.458,15.446l15.45-15.446l15.45,15.451l15.448-15.447l15.455,15.447l15.456-15.447V25.847H28.52z M92.974,108.8l-18.097-9.521l-18.1,9.521l3.453-20.163L45.577,74.364l20.248-2.952l9.053-18.339l9.046,18.339l20.252,2.952 L89.522,88.637L92.974,108.8z"/> <path d="M127.935,4.241H21.817c-1.842,0-3.338,1.502-3.338,3.346c0,1.836,1.497,3.333,3.338,3.333h106.118 c1.844,0,3.338-1.497,3.338-3.333C131.269,5.743,129.779,4.241,127.935,4.241z"/> <path d="M99.595,15.16H50.159c-4.192,0-7.587-3.39-7.587-7.573c0-4.191,3.39-7.586,7.587-7.586h49.436 c4.183,0,7.585,3.395,7.585,7.586C107.18,11.765,103.778,15.16,99.595,15.16z"/> <path d="M74.877,25.976c-1.975,0-3.941-0.813-5.365-2.225c-1.411-1.406-2.218-3.327-2.218-5.352c0-1.973,0.812-3.945,2.218-5.357 c2.846-2.829,7.934-2.829,10.722,0c1.412,1.412,2.223,3.385,2.223,5.357c0,2.024-0.821,3.945-2.223,5.352 C78.815,25.163,76.892,25.976,74.877,25.976z"/> </g> </g> </g>
</svg>